# xmcd
#
# Track frame offsets:
#	150
#	21156
#	35859
#	50949
#	66632
#	92760
#	112072
#	129039
#	150445
#	167431
#	189358
#	205116
#	224333
#	240961
#	263611
#	284345
#	298837
#
# Disc length: 4285 seconds
#
# Revision: 0
# Processed by: cddbd v1.5.1PL0 Copyright (c) Steve Scherf et al.
# Submitted via: EasyCDDAExtractor 8.2.3.1
#
DISCID=fa10bb11
DTITLE=Anne-Marie
DYEAR=2000
DGENRE=Vocal
TTITLE0=Think Twice (Celine Dion)
TTITLE1=He's My Baby (Original)
TTITLE2=Destiny (Jennifer Rush)
TTITLE3=From This Moment (Shania Twain)
TTITLE4=Zombie (Cranberries)
TTITLE5=How Do I Live Without You (Lee-Ann Rhymes)
TTITLE6=Man I Feel Like A Women (Shania Twain)
TTITLE7=From A Distance (Bette Midler)
TTITLE8=Ironic (Alanis Morrisette)
TTITLE9=What's Up (Four Non-Blondes)
TTITLE10=Whatever You Do, Don't Do That (Shania Twain)
TTITLE11=I Will Always Love You (Whitney Houston)
TTITLE12=I Am I Said (Neil Diamond)
TTITLE13=Crash Boom Bang (Roxette)
TTITLE14=Mary Jane (Alanis Morrisette)
TTITLE15=Tubesnake Boogoe (ZZ Top)
TTITLE16=You (Kunze)
EXTD=
EXTT0=
EXTT1=
EXTT2=
EXTT3=
EXTT4=
EXTT5=
EXTT6=
EXTT7=
EXTT8=
EXTT9=
EXTT10=
EXTT11=
EXTT12=
EXTT13=
EXTT14=
EXTT15=
EXTT16=
PLAYORDER=
